<svg xmlns="http://www.w3.org/2000/svg" xmlns:xlink="http://www.w3.org/1999/xlink" fill="none" viewBox="0 0 36 36" xmlns:v="https://vecta.io/nano"><style>@media(prefers-color-scheme:dark){:root{filter:invert(100%)}}</style><defs><linearGradient id="A" x1="0" y1="39.582" x2="74" y2="39.582" gradientUnits="userSpaceOnUse"><stop offset="0" stop-color="#00853f"/><stop offset=".186" stop-color="#00853f"/><stop offset=".298" stop-color="#fdef42"/><stop offset=".709" stop-color="#fdef42"/><stop offset=".828" stop-color="#e31b23"/></linearGradient></defs><path d="M73.701 17.959c-1.14-8.339-8.524-14.91-17.277-16.184C54.947 1.56 49.352.777 36.39.777h-.097c-12.965 0-15.747.783-17.224.998C10.56 3.013 2.789 8.918.903 17.356-.004 21.511-.1 26.118.068 30.344c.24 6.06.287 12.11.846 18.145A84.12 84.12 0 0 0 2.932 60.39c1.792 7.231 9.047 13.249 16.155 15.704 7.61 2.56 15.794 2.985 23.636 1.228.863-.198 1.716-.427 2.559-.688 1.903-.596 4.137-1.263 5.778-2.434.023-.016.041-.038.054-.062a.18.18 0 0 0 .021-.079v-5.848a.17.17 0 0 0-.018-.074c-.012-.023-.028-.043-.049-.059s-.045-.027-.07-.033-.052-.005-.078 0c-5.024 1.181-10.173 1.773-15.338 1.764-8.89 0-11.28-4.152-11.965-5.88a17.98 17.98 0 0 1-1.04-4.635c-.001-.026.004-.053.015-.077a.17.17 0 0 1 .049-.063c.021-.017.046-.029.072-.034s.054-.005.08.002c4.941 1.173 10.005 1.765 15.087 1.764l3.663-.032c5.111-.141 10.499-.399 15.528-1.365.126-.025.251-.046.358-.078 7.933-1.499 15.481-6.205 16.249-18.12.029-.469.1-4.914.1-5.401.004-1.654.541-11.736-.079-17.93zM61.493 47.692h-8.341V27.586c0-4.233-1.792-6.392-5.438-6.392-4.008 0-6.015 2.554-6.015 7.598v11.005h-8.291V28.792c0-5.044-2.011-7.598-6.018-7.598-3.624 0-5.434 2.159-5.438 6.392v20.106h-8.334V26.975c0-4.233 1.098-7.596 3.294-10.088 2.265-2.487 5.237-3.764 8.926-3.764 4.269 0 7.495 1.616 9.646 4.843l2.075 3.429 2.079-3.429c2.151-3.228 5.377-4.843 9.639-4.843 3.685 0 6.656 1.277 8.929 3.764 2.196 2.49 3.294 5.853 3.294 10.088z" fill="url(#A)" transform="matrix(.339952 0 0 .339952 5.421757 4.544011)"/><g transform="matrix(.019174 0 0 .019174 18.075558 20.812426)" fill="#00853f"><g id="B"><path id="C" d="M0-100L-30.902-4.894l47.553 15.451z"/><use xlink:href="#C" transform="scale(-1 1)"/></g><use xlink:href="#B" transform="rotate(72)"/><use xlink:href="#B" transform="rotate(144)"/><use xlink:href="#B" transform="rotate(216)"/><use xlink:href="#B" transform="rotate(288)"/></g></svg>